<svg width="20" height="20" viewBox="0 0 20 20" fill="none" xmlns="http://www.w3.org/2000/svg">
<path fill-rule="evenodd" clip-rule="evenodd" d="M15.625 3.33398C15.625 2.98881 15.9048 2.70898 16.25 2.70898H16.6667C17.9323 2.70898 18.9583 3.735 18.9583 5.00065V10.834C18.9583 11.1792 18.6785 11.459 18.3333 11.459H16.875V16.6673C16.875 17.0125 16.5952 17.2923 16.25 17.2923C15.9048 17.2923 15.625 17.0125 15.625 16.6673V3.33398Z" fill="#999999"/>
<path fill-rule="evenodd" clip-rule="evenodd" d="M1.62558 3.82057C1.97338 3.26571 2.55539 2.70898 3.33366 2.70898C4.11193 2.70898 4.69394 3.26571 5.04174 3.82057C5.40355 4.3978 5.62533 5.13728 5.62533 5.83398C5.62533 6.55162 5.38747 7.14973 4.93146 7.56226C4.64933 7.81749 4.31273 7.97543 3.95866 8.05693V16.6673C3.95866 17.0125 3.67883 17.2923 3.33366 17.2923C2.98848 17.2923 2.70866 17.0125 2.70866 16.6673V8.05693C2.35459 7.97543 2.01798 7.81749 1.73586 7.56226C1.27985 7.14973 1.04199 6.55162 1.04199 5.83398C1.04199 5.13728 1.26377 4.3978 1.62558 3.82057Z" fill="#999999"/>
<path fill-rule="evenodd" clip-rule="evenodd" d="M9.99966 4.375C11.8128 4.375 13.4515 5.12219 14.6245 6.32545V15.3413C13.4515 16.5445 11.8128 17.2917 9.99966 17.2917C7.96024 17.2917 6.1416 16.3463 4.95801 14.87V8.7485C5.18317 8.63225 5.40032 8.48533 5.60167 8.30319C6.30537 7.66659 6.62467 6.77771 6.62467 5.83333C6.62467 5.67043 6.61537 5.50647 6.59737 5.34281C7.58537 4.72928 8.75116 4.375 9.99966 4.375ZM7.29199 10.8333C7.29199 9.33758 8.50457 8.125 10.0003 8.125C11.4961 8.125 12.7087 9.33758 12.7087 10.8333C12.7087 12.3291 11.4961 13.5417 10.0003 13.5417C8.50457 13.5417 7.29199 12.3291 7.29199 10.8333ZM10.0003 6.875C7.81419 6.875 6.04199 8.64717 6.04199 10.8333C6.04199 13.0194 7.81418 14.7917 10.0003 14.7917C12.1865 14.7917 13.9587 13.0194 13.9587 10.8333C13.9587 8.64717 12.1865 6.875 10.0003 6.875Z" fill="#999999"/>
</svg>
